<svg xmlns="http://www.w3.org/2000/svg" width="1180" height="610" viewBox="0 0 1180 610" role="img" aria-labelledby="title desc">
  <title id="title">Alex46x — developer profile</title>
  <desc id="desc">Animated terminal-style profile banner for Alex46x, a CSE student and software developer.</desc>
  <defs>
    <linearGradient id="bg" x2="1" y2="1"><stop stop-color="#030712"/><stop offset=".52" stop-color="#07101f"/><stop offset="1" stop-color="#030712"/></linearGradient>
    <linearGradient id="accent" x1="0" x2="1"><stop stop-color="#7c3aed"><animate attributeName="stop-color" values="#7c3aed;#22d3ee;#7c3aed" dur="8s" repeatCount="indefinite"/></stop><stop offset=".5" stop-color="#22d3ee"><animate attributeName="stop-color" values="#22d3ee;#10b981;#22d3ee" dur="8s" repeatCount="indefinite"/></stop><stop offset="1" stop-color="#10b981"><animate attributeName="stop-color" values="#10b981;#7c3aed;#10b981" dur="8s" repeatCount="indefinite"/></stop></linearGradient>
    <linearGradient id="glass" x2="0" y2="1"><stop stop-color="#fff" stop-opacity=".09"/><stop offset=".15" stop-color="#fff" stop-opacity=".025"/><stop offset="1" stop-color="#0f172a" stop-opacity=".58"/></linearGradient>
    <linearGradient id="shine" x1="-1" x2="0"><stop stop-color="#fff" stop-opacity="0"/><stop offset=".5" stop-color="#fff" stop-opacity=".4"/><stop offset="1" stop-color="#fff" stop-opacity="0"/><animate attributeName="x1" values="-1;1" dur="6s" repeatCount="indefinite"/><animate attributeName="x2" values="0;2" dur="6s" repeatCount="indefinite"/></linearGradient>
    <radialGradient id="orbA"><stop stop-color="#2563eb" stop-opacity=".24"/><stop offset="1" stop-color="#2563eb" stop-opacity="0"/></radialGradient>
    <radialGradient id="orbB"><stop stop-color="#7c3aed" stop-opacity=".21"/><stop offset="1" stop-color="#7c3aed" stop-opacity="0"/></radialGradient>
    <radialGradient id="orbC"><stop stop-color="#10b981" stop-opacity=".14"/><stop offset="1" stop-color="#10b981" stop-opacity="0"/></radialGradient>
    <pattern id="noise" width="17" height="19" patternUnits="userSpaceOnUse"><circle cx="2" cy="4" r=".45" fill="#fff" opacity=".1"/><circle cx="13" cy="8" r=".35" fill="#fff" opacity=".08"/><circle cx="7" cy="16" r=".3" fill="#fff" opacity=".07"/></pattern>
    <filter id="shadow" x="-20%" y="-20%" width="140%" height="150%"><feDropShadow dx="0" dy="18" stdDeviation="24" flood-color="#000" flood-opacity=".45"/></filter>
    <filter id="glow" x="-50%" y="-50%" width="200%" height="200%"><feGaussianBlur stdDeviation="5" result="b"/><feMerge><feMergeNode in="b"/><feMergeNode in="SourceGraphic"/></feMerge></filter>
    <filter id="soft"><feGaussianBlur stdDeviation="18"/></filter>
    <clipPath id="frame"><rect x="1" y="1" width="1178" height="608" rx="32"/></clipPath>
    <clipPath id="portraitClip"><rect x="48" y="80" width="392" height="450" rx="24"/></clipPath>
    <mask id="asciiReveal"><rect x="0" y="0" width="0" height="610" fill="white"><animate attributeName="width" values="0;430;430" keyTimes="0;.75;1" dur="4.8s" fill="freeze"/></rect></mask>
    <mask id="roleReveal"><rect x="0" y="0" width="0" height="40" fill="white"><animate attributeName="width" values="0;410;410;0" keyTimes="0;.36;.82;1" dur="12s" repeatCount="indefinite"/></rect></mask>
  </defs>

  <g clip-path="url(#frame)">
    <rect width="1180" height="610" fill="url(#bg)"/>
    <circle cx="120" cy="70" r="280" fill="url(#orbA)" filter="url(#soft)"><animateTransform attributeName="transform" type="translate" values="0 0;65 34;0 0" dur="13s" repeatCount="indefinite"/></circle>
    <circle cx="1000" cy="85" r="250" fill="url(#orbB)" filter="url(#soft)"><animateTransform attributeName="transform" type="translate" values="0 0;-55 62;0 0" dur="16s" repeatCount="indefinite"/></circle>
    <circle cx="900" cy="570" r="250" fill="url(#orbC)" filter="url(#soft)"><animateTransform attributeName="transform" type="translate" values="0 0;-80 -25;0 0" dur="14s" repeatCount="indefinite"/></circle>
    <rect width="1180" height="610" fill="url(#noise)" opacity=".34"/>

    <g fill="#22d3ee" opacity=".35">
      <circle cx="82" cy="132" r="1.4"><animateMotion path="M0 0 C 24 -35 48 16 75 -30" dur="9s" repeatCount="indefinite"/></circle>
      <circle cx="1120" cy="480" r="1.2"><animateMotion path="M0 0 C -32 -22 -42 28 -80 -12" dur="11s" repeatCount="indefinite"/></circle>
      <circle cx="530" cy="555" r="1"><animate attributeName="opacity" values=".1;.7;.1" dur="3.5s" repeatCount="indefinite"/></circle>
      <circle cx="780" cy="55" r="1.3"><animate attributeName="opacity" values=".15;.65;.15" dur="4.3s" repeatCount="indefinite"/></circle>
    </g>

    <rect x="28" y="28" width="1124" height="554" rx="28" fill="#fff" fill-opacity=".025" stroke="#fff" stroke-opacity=".1" filter="url(#shadow)"/>
    <rect x="29" y="29" width="1122" height="552" rx="27" fill="none" stroke="url(#shine)" stroke-width="2"/>

    <!-- portrait terminal -->
    <g>
      <rect x="48" y="56" width="392" height="498" rx="24" fill="#0f172a" fill-opacity=".66" stroke="#fff" stroke-opacity=".09"/>
      <path d="M72 57H416Q439 57 439 80V110H49V80Q49 57 72 57Z" fill="url(#glass)"/>
      <circle cx="76" cy="84" r="5" fill="#fb7185"/><circle cx="94" cy="84" r="5" fill="#fbbf24"/><circle cx="112" cy="84" r="5" fill="#34d399"/>
      <text x="244" y="89" text-anchor="middle" fill="#94a3b8" font-family="ui-monospace, SFMono-Regular, Consolas, monospace" font-size="11" letter-spacing="1.5">ALEX.ASC</text>
      <g clip-path="url(#portraitClip)">
        <g mask="url(#asciiReveal)" font-family="ui-monospace, SFMono-Regular, Consolas, monospace" font-size="18" font-weight="700" fill="url(#accent)" filter="url(#glow)">
          <g><animateTransform attributeName="transform" type="translate" values="0 0;0 -7;0 0" dur="6s" repeatCount="indefinite"/>
            <text x="73" y="151" opacity="0">             .+******+.<animate attributeName="opacity" values="0;0;1" keyTimes="0;.03;1" dur="2.8s" fill="freeze"/></text>
            <text x="73" y="175" opacity="0">          .+##########+.<animate attributeName="opacity" values="0;0;1" keyTimes="0;.1;1" dur="2.8s" fill="freeze"/></text>
            <text x="73" y="199" opacity="0">        .################.<animate attributeName="opacity" values="0;0;1" keyTimes="0;.17;1" dur="2.8s" fill="freeze"/></text>
            <text x="73" y="223" opacity="0">       +######+..+#######+<animate attributeName="opacity" values="0;0;1" keyTimes="0;.24;1" dur="2.8s" fill="freeze"/></text>
            <text x="73" y="247" opacity="0">      +####+.      .+####+<animate attributeName="opacity" values="0;0;1" keyTimes="0;.31;1" dur="2.8s" fill="freeze"/></text>
            <text x="73" y="271" opacity="0">      ####+  &lt;•&gt;  &lt;•&gt; +####<animate attributeName="opacity" values="0;0;1" keyTimes="0;.38;1" dur="2.8s" fill="freeze"/></text>
            <text x="73" y="295" opacity="0">      ####.    /\    .####<animate attributeName="opacity" values="0;0;1" keyTimes="0;.45;1" dur="2.8s" fill="freeze"/></text>
            <text x="73" y="319" opacity="0">       ####.  ____  .####<animate attributeName="opacity" values="0;0;1" keyTimes="0;.52;1" dur="2.8s" fill="freeze"/></text>
            <text x="73" y="343" opacity="0">        +####+....+####+<animate attributeName="opacity" values="0;0;1" keyTimes="0;.59;1" dur="2.8s" fill="freeze"/></text>
            <text x="73" y="367" opacity="0">          +########+<animate attributeName="opacity" values="0;0;1" keyTimes="0;.66;1" dur="2.8s" fill="freeze"/></text>
            <text x="73" y="391" opacity="0">       .+############+.<animate attributeName="opacity" values="0;0;1" keyTimes="0;.73;1" dur="2.8s" fill="freeze"/></text>
            <text x="73" y="415" opacity="0">     .##################.<animate attributeName="opacity" values="0;0;1" keyTimes="0;.8;1" dur="2.8s" fill="freeze"/></text>
            <text x="73" y="439" opacity="0">    +####################+<animate attributeName="opacity" values="0;0;1" keyTimes="0;.87;1" dur="2.8s" fill="freeze"/></text>
          </g>
        </g>
        <rect x="52" y="112" width="384" height="2" fill="#22d3ee" opacity=".5" filter="url(#glow)"><animate attributeName="y" values="112;538;112" dur="5.5s" repeatCount="indefinite"/></rect>
      </g>
      <text x="74" y="505" fill="#94a3b8" font-family="ui-monospace, SFMono-Regular, Consolas, monospace" font-size="12">alex@github:~$ render --profile</text>
      <rect x="330" y="493" width="7" height="15" rx="1" fill="#22d3ee"><animate attributeName="opacity" values="1;0;1" dur="1s" repeatCount="indefinite"/></rect>
      <rect x="62" y="470" width="364" height="1" fill="#fff" opacity=".07"/>
    </g>

    <!-- profile terminal -->
    <g font-family="ui-sans-serif, system-ui, -apple-system, Segoe UI, sans-serif">
      <rect x="464" y="56" width="668" height="498" rx="24" fill="#0f172a" fill-opacity=".68" stroke="#fff" stroke-opacity=".09"/>
      <path d="M488 57H1108Q1131 57 1131 80V110H465V80Q465 57 488 57Z" fill="url(#glass)"/>
      <circle cx="492" cy="84" r="5" fill="#fb7185"/><circle cx="510" cy="84" r="5" fill="#fbbf24"/><circle cx="528" cy="84" r="5" fill="#34d399"/>
      <text x="798" y="89" text-anchor="middle" fill="#94a3b8" font-family="ui-monospace, SFMono-Regular, Consolas, monospace" font-size="11" letter-spacing="1.2">PROFILE — ZSH — 118 × 42</text>

      <g opacity="0"><animate attributeName="opacity" values="0;1" begin=".3s" dur=".6s" fill="freeze"/>
        <text x="500" y="149" fill="#94a3b8" font-size="17">Hi</text><path d="M526 145c4-7 8-11 12-8 3 2-1 7 1 8 3 1 7-9 11-6 3 2-2 8 0 9 2 1 6-6 9-3 5 5-3 15-14 15-9 0-16-7-19-15Z" fill="url(#accent)"/>
        <text x="500" y="190" fill="#f8fafc" font-size="31" font-weight="650" letter-spacing="-.8">I'm </text><text x="562" y="190" fill="url(#accent)" font-size="31" font-weight="750" letter-spacing="-.8">Alex46x</text>
      </g>

      <g transform="translate(500 214)" mask="url(#roleReveal)">
        <text y="24" fill="#22d3ee" font-family="ui-monospace, SFMono-Regular, Consolas, monospace" font-size="17">Software Developer · Security Enthusiast · UI Engineer</text>
      </g>
      <rect x="500" y="218" width="2" height="23" fill="#22d3ee"><animate attributeName="x" values="500;898;898;500" keyTimes="0;.36;.82;1" dur="12s" repeatCount="indefinite"/><animate attributeName="opacity" values="1;0;1" dur=".85s" repeatCount="indefinite"/></rect>

      <g font-family="ui-monospace, SFMono-Regular, Consolas, monospace" font-size="12.5">
        <g opacity="0"><animate attributeName="opacity" from="0" to="1" begin="1.1s" dur=".45s" fill="freeze"/><text x="500" y="276" fill="#64748b">01</text><text x="532" y="276" fill="#94a3b8">location</text><text x="625" y="276" fill="#f8fafc">Dhaka, Bangladesh</text></g>
        <g opacity="0"><animate attributeName="opacity" from="0" to="1" begin="1.35s" dur=".45s" fill="freeze"/><text x="500" y="301" fill="#64748b">02</text><text x="532" y="301" fill="#94a3b8">education</text><text x="625" y="301" fill="#f8fafc">Computer Science &amp; Engineering</text></g>
        <g opacity="0"><animate attributeName="opacity" from="0" to="1" begin="1.6s" dur=".45s" fill="freeze"/><text x="500" y="326" fill="#64748b">03</text><text x="532" y="326" fill="#94a3b8">focus</text><text x="625" y="326" fill="#f8fafc">Security · Systems · Web</text></g>
        <g opacity="0"><animate attributeName="opacity" from="0" to="1" begin="1.85s" dur=".45s" fill="freeze"/><text x="500" y="351" fill="#64748b">04</text><text x="532" y="351" fill="#94a3b8">portfolio</text><text x="625" y="351" fill="#22d3ee">github.com/alex46x</text></g>
        <g opacity="0"><animate attributeName="opacity" from="0" to="1" begin="2.1s" dur=".45s" fill="freeze"/><text x="500" y="376" fill="#64748b">05</text><text x="532" y="376" fill="#94a3b8">email</text><text x="625" y="376" fill="#f8fafc">available on request</text></g>
      </g>

      <text x="500" y="416" fill="#94a3b8" font-size="11" font-weight="700" letter-spacing="2">TOOLBOX</text>
      <g font-family="ui-monospace, SFMono-Regular, Consolas, monospace" font-size="11.5" fill="#e2e8f0">
        <g id="p1"><rect x="500" y="430" width="65" height="30" rx="15" fill="#7c3aed" fill-opacity=".13" stroke="#8b5cf6" stroke-opacity=".45"><animate attributeName="stroke-opacity" values=".35;.8;.35" dur="3s" repeatCount="indefinite"/></rect><text x="532.5" y="449" text-anchor="middle">React</text><animateTransform attributeName="transform" type="scale" values="1;1.03;1" begin="p1.mouseover" dur=".35s"/></g>
        <g id="p2"><rect x="573" y="430" width="69" height="30" rx="15" fill="#22d3ee" fill-opacity=".1" stroke="#22d3ee" stroke-opacity=".38"/><text x="607.5" y="449" text-anchor="middle">Next.js</text><animateTransform attributeName="transform" type="scale" values="1;1.03;1" begin="p2.mouseover" dur=".35s"/></g>
        <g id="p3"><rect x="650" y="430" width="66" height="30" rx="15" fill="#10b981" fill-opacity=".1" stroke="#34d399" stroke-opacity=".38"/><text x="683" y="449" text-anchor="middle">Node.js</text></g>
        <g><rect x="724" y="430" width="91" height="30" rx="15" fill="#7c3aed" fill-opacity=".1" stroke="#8b5cf6" stroke-opacity=".4"/><text x="769.5" y="449" text-anchor="middle">TypeScript</text></g>
        <g><rect x="823" y="430" width="75" height="30" rx="15" fill="#22d3ee" fill-opacity=".1" stroke="#22d3ee" stroke-opacity=".38"/><text x="860.5" y="449" text-anchor="middle">Tailwind</text></g>
        <g><rect x="906" y="430" width="67" height="30" rx="15" fill="#10b981" fill-opacity=".1" stroke="#34d399" stroke-opacity=".38"/><text x="939.5" y="449" text-anchor="middle">Python</text></g>
        <g><rect x="981" y="430" width="65" height="30" rx="15" fill="#7c3aed" fill-opacity=".1" stroke="#8b5cf6" stroke-opacity=".4"/><text x="1013.5" y="449" text-anchor="middle">Docker</text></g>
        <g><rect x="1054" y="430" width="54" height="30" rx="15" fill="#22d3ee" fill-opacity=".1" stroke="#22d3ee" stroke-opacity=".38"/><text x="1081" y="449" text-anchor="middle">Git</text></g>
        <g><rect x="500" y="466" width="78" height="30" rx="15" fill="#10b981" fill-opacity=".1" stroke="#34d399" stroke-opacity=".38"/><text x="539" y="485" text-anchor="middle">Postgres</text></g>
        <g><rect x="586" y="466" width="54" height="30" rx="15" fill="#7c3aed" fill-opacity=".1" stroke="#8b5cf6" stroke-opacity=".4"/><text x="613" y="485" text-anchor="middle">AWS</text></g>
        <g><rect x="648" y="466" width="60" height="30" rx="15" fill="#22d3ee" fill-opacity=".1" stroke="#22d3ee" stroke-opacity=".38"/><text x="678" y="485" text-anchor="middle">Figma</text></g>
      </g>

      <line x1="500" y1="510" x2="1098" y2="510" stroke="#fff" stroke-opacity=".07"/>
      <g transform="translate(500 518) scale(.82)" fill="none" stroke="#94a3b8" stroke-width="1.5" stroke-linecap="round" stroke-linejoin="round">
        <g><path d="M12 1.5a10.5 10.5 0 0 0-3.3 20.5c.5.1.7-.2.7-.5v-2c-3 .7-3.7-1.3-3.7-1.3-.5-1.3-1.2-1.7-1.2-1.7-1-.7.1-.7.1-.7 1.1.1 1.7 1.2 1.7 1.2 1 1.7 2.6 1.2 3.2.9.1-.7.4-1.2.7-1.5-2.4-.3-4.9-1.2-4.9-5.2 0-1.2.4-2.1 1.1-2.8-.1-.3-.5-1.4.1-2.8 0 0 .9-.3 2.9 1.1a10 10 0 0 1 5.3 0c2-1.4 2.9-1.1 2.9-1.1.6 1.4.2 2.5.1 2.8.7.7 1.1 1.6 1.1 2.8 0 4-2.5 4.9-4.9 5.2.4.3.7 1 .7 2v3c0 .3.2.6.7.5A10.5 10.5 0 0 0 12 1.5Z"/><text x="32" y="17" fill="#94a3b8" stroke="none" font-family="ui-sans-serif, system-ui" font-size="12">GitHub</text></g>
        <g transform="translate(118)"><rect x="2" y="2" width="20" height="20" rx="4"/><path d="M7 10v7M7 7v.1M11 17v-4c0-3 6-3 6 0v4M11 10v7"/><text x="32" y="17" fill="#64748b" stroke="none" font-family="ui-sans-serif, system-ui" font-size="12">LinkedIn</text></g>
        <g transform="translate(250)"><path d="M21 6c-.7.3-1.5.5-2.3.6A4 4 0 0 0 20.5 4a8 8 0 0 1-2.6 1 4 4 0 0 0-6.9 2.7c0 .3 0 .6.1.9A11.4 11.4 0 0 1 2.8 4.4a4 4 0 0 0 1.2 5.4c-.7 0-1.3-.2-1.8-.5 0 2 1.4 3.6 3.3 4-.4.1-.7.1-1.1.1-.3 0-.5 0-.8-.1.5 1.6 2 2.8 3.8 2.8A8.1 8.1 0 0 1 2.4 18c-.3 0-.6 0-1-.1a11.4 11.4 0 0 0 6.2 1.8c7.4 0 11.5-6.2 11.5-11.5v-.5c.8-.5 1.4-1.1 1.9-1.7Z"/><text x="32" y="17" fill="#64748b" stroke="none" font-family="ui-sans-serif, system-ui" font-size="12">Twitter</text></g>
        <g transform="translate(365)"><circle cx="12" cy="12" r="10"/><path d="M2 12h20M12 2c3 3 4 6.3 4 10s-1 7-4 10c-3-3-4-6.3-4-10s1-7 4-10Z"/><text x="32" y="17" fill="#64748b" stroke="none" font-family="ui-sans-serif, system-ui" font-size="12">Portfolio</text></g>
      </g>
      <circle cx="1098" cy="530" r="3" fill="#34d399" filter="url(#glow)"><animate attributeName="opacity" values=".35;1;.35" dur="2s" repeatCount="indefinite"/></circle>
    </g>

    <rect x="28" y="-80" width="1124" height="150" rx="70" fill="#fff" opacity=".025" transform="rotate(-4 590 0)"/>
  </g>
  <rect x="1" y="1" width="1178" height="608" rx="32" fill="none" stroke="#fff" stroke-opacity=".08" stroke-width="2"/>
</svg>
